<?xml version="1.0" encoding="UTF-8" standalone="no"?><!DOCTYPE svg PUBLIC "-//W3C//DTD SVG 1.1//EN" "http://www.w3.org/Graphics/SVG/1.1/DTD/svg11.dtd"><svg width="100%" height="100%" viewBox="0 0 4000 478" version="1.1" xmlns="http://www.w3.org/2000/svg" xmlns:xlink="http://www.w3.org/1999/xlink" xml:space="preserve" xmlns:serif="http://www.serif.com/" style="fill-rule:evenodd;clip-rule:evenodd;stroke-linejoin:round;stroke-miterlimit:2;"><g><path d="M4000,40.873c0,-22.576 -18.329,-40.905 -40.905,-40.905l-3918.19,-0c-22.576,-0 -40.905,18.329 -40.905,40.905l0,395.322c0,22.576 18.329,40.905 40.905,40.905l3918.19,-0c22.576,-0 40.905,-18.329 40.905,-40.905l0,-395.322Z" style="fill:#5165f6;"/><text x="1216.65px" y="314.687px" style="font-family:'Whitney-Semibold', 'Whitney';font-weight:375;font-size:206.473px;fill:#f2f3fe;">Add to Server</text><g><path d="M2578.26,329.469l159.772,0c6.277,0 11.412,-5.135 11.412,-11.412l0,-91.298l-22.824,-0l-0,79.886l-136.948,-0l0,-136.948l79.886,0l0,-22.824l-91.298,-0c-6.277,-0 -11.412,5.135 -11.412,11.412l-0,159.772c-0,6.277 5.135,11.412 11.412,11.412Z" style="fill:#f2f3fe;fill-rule:nonzero;"/><path d="M2636.75,243.307l15.977,15.977l73.895,-73.609l-0,24.821l22.824,0l0,-63.623l-63.908,-0l-0,22.824l24.821,0l-73.609,73.61Z" style="fill:#f2f3fe;fill-rule:nonzero;"/></g></g></svg>