<?xml version="1.0" encoding="UTF-8" standalone="no"?><!DOCTYPE svg PUBLIC "-//W3C//DTD SVG 1.1//EN" "http://www.w3.org/Graphics/SVG/1.1/DTD/svg11.dtd"><svg width="100%" height="100%" viewBox="0 0 4000 4000" version="1.1" xmlns="http://www.w3.org/2000/svg" xmlns:xlink="http://www.w3.org/1999/xlink" xml:space="preserve" xmlns:serif="http://www.serif.com/" style="fill-rule:evenodd;clip-rule:evenodd;stroke-linejoin:round;stroke-miterlimit:2;"><circle cx="2000" cy="2000" r="2000" style="fill:#fff;"/><clipPath id="_clip1"><circle cx="2000" cy="2000" r="2000"/></clipPath><g clip-path="url(#_clip1)"><rect x="0" y="0" width="4000" height="4000" style="fill:#5165f6;"/><path d="M2102.06,843.334c-0,-55.987 -46.071,-102.058 -102.059,-102.058c-55.988,-0 -102.059,46.071 -102.059,102.058l0,204.118c0,55.988 46.071,102.059 102.059,102.059c55.988,-0 102.059,-46.071 102.059,-102.059l-0,-204.118Zm854.572,302.094c39.53,39.58 39.53,104.663 -0,144.243l-144.244,144.379c-19.024,18.392 -44.475,28.683 -70.936,28.683c-55.988,0 -102.059,-46.071 -102.059,-102.058c0,-26.428 10.265,-51.85 28.616,-70.868l144.243,-144.379c19.135,-19.146 45.121,-29.915 72.19,-29.915c27.069,-0 53.055,10.769 72.19,29.915Zm-1692.82,1092.71c-8.193,-44.604 -12.315,-89.861 -12.315,-135.212c0,-410.577 337.854,-748.431 748.431,-748.431c410.577,0 748.431,337.854 748.431,748.431c-0,45.351 -4.122,90.608 -12.315,135.212l522.676,0c55.988,0 102.059,46.071 102.059,102.059c0,55.988 -46.071,102.059 -102.059,102.059l-2517.45,-0c-55.988,-0 -102.059,-46.071 -102.059,-102.059c-0,-55.988 46.071,-102.059 102.059,-102.059l522.54,0Zm21.773,408.235c-55.988,-0 -102.059,46.071 -102.059,102.059c0,55.987 46.071,102.058 102.059,102.058l1428.82,0c55.988,0 102.059,-46.071 102.059,-102.058c-0,-55.988 -46.071,-102.059 -102.059,-102.059l-1428.82,-0Zm544.313,408.235c-55.988,-0 -102.059,46.071 -102.059,102.059c0,55.987 46.071,102.058 102.059,102.058l340.196,0c55.988,0 102.059,-46.071 102.059,-102.058c-0,-55.988 -46.071,-102.059 -102.059,-102.059l-340.196,-0Zm-786.533,-1909.18c39.58,-39.531 104.664,-39.531 144.244,0l144.379,144.243c19.924,19.226 31.191,45.755 31.191,73.443c0,55.988 -46.071,102.059 -102.059,102.059c-27.654,-0 -54.154,-11.24 -73.375,-31.123l-144.38,-144.243c-19.146,-19.134 -29.915,-45.121 -29.915,-72.189c0,-27.069 10.769,-53.056 29.915,-72.19Z" style="fill:#fff;fill-rule:nonzero;"/></g></svg>