<?xml version="1.0" encoding="UTF-8" standalone="no"?><!DOCTYPE svg PUBLIC "-//W3C//DTD SVG 1.1//EN" "http://www.w3.org/Graphics/SVG/1.1/DTD/svg11.dtd"><svg width="100%" height="100%" viewBox="0 0 16667 16667" version="1.1" xmlns="http://www.w3.org/2000/svg" xmlns:xlink="http://www.w3.org/1999/xlink" xml:space="preserve" xmlns:serif="http://www.serif.com/" style="fill-rule:evenodd;clip-rule:evenodd;stroke-linejoin:round;stroke-miterlimit:2;"><rect x="0" y="0" width="16666.7" height="16666.7" style="fill:#ff8655;"/><path d="M8758.56,3513.88c0,-233.28 -191.961,-425.241 -425.245,-425.241c-233.282,-0 -425.244,191.962 -425.244,425.241l0,850.489c0,233.284 191.962,425.245 425.244,425.245c233.284,0 425.245,-191.961 425.245,-425.245l0,-850.489Zm3560.71,1258.73c164.708,164.916 164.708,436.095 0,601.011l-601.015,601.578c-79.266,76.634 -185.312,119.513 -295.566,119.513c-233.283,-0 -425.245,-191.963 -425.245,-425.241c0,-110.117 42.771,-216.041 119.233,-295.283l601.012,-601.578c79.728,-79.774 188.003,-124.645 300.79,-124.645c112.788,-0 221.063,44.871 300.791,124.645Zm-7053.41,4552.95c-34.136,-185.849 -51.311,-374.42 -51.311,-563.382c-0,-1710.74 1407.73,-3118.45 3118.45,-3118.45c1710.74,-0 3118.45,1407.73 3118.45,3118.45c0,188.962 -17.175,377.533 -51.313,563.382l2177.82,0c233.282,0 425.245,191.962 425.245,425.245c-0,233.283 -191.963,425.246 -425.245,425.246l-10489.4,-0c-233.283,-0 -425.245,-191.963 -425.245,-425.246c-0,-233.282 191.962,-425.245 425.245,-425.245l2177.28,0Zm90.721,1700.98c-233.282,-0 -425.245,191.963 -425.245,425.245c0,233.279 191.963,425.241 425.245,425.241l5953.41,0c233.283,0 425.246,-191.962 425.246,-425.241c-0,-233.282 -191.963,-425.245 -425.246,-425.245l-5953.41,-0Zm2267.97,1700.98c-233.283,-0 -425.245,191.962 -425.245,425.245c-0,233.278 191.962,425.241 425.245,425.241l1417.48,-0c233.283,-0 425.245,-191.963 425.245,-425.241c0,-233.283 -191.962,-425.245 -425.245,-425.245l-1417.48,-0Zm-3277.21,-7954.9c164.917,-164.712 436.099,-164.712 601.016,0l601.578,601.011c83.017,80.109 129.962,190.646 129.962,306.013c0.001,233.282 -191.962,425.245 -425.245,425.245c-115.224,-0 -225.641,-46.834 -305.728,-129.68l-601.583,-601.011c-79.775,-79.725 -124.645,-188.003 -124.645,-300.787c-0,-112.787 44.87,-221.066 124.645,-300.791Z" style="fill:#fff;fill-rule:nonzero;"/></svg>